<?xml version="1.0" encoding="iso-8859-1"?>
<!-- Generator: Adobe Illustrator 19.1.0, SVG Export Plug-In . SVG Version: 6.00 Build 0)  -->
<svg version="1.1" id="Capa_1" xmlns="http://www.w3.org/2000/svg" xmlns:xlink="http://www.w3.org/1999/xlink" x="0px" y="0px"
	 viewBox="0 0 122.095 122.095" style="enable-background:new 0 0 122.095 122.095;" xml:space="preserve">
<g>
	<path d="M105.977,122.095H16.116c-4.748,0-8.61-4.491-8.61-10.011c0-0.181,0.016-0.362,0.048-0.541L18.082,52.18
		c0.134-5.386,3.943-9.719,8.606-9.719h65.78c6.217,0,7.949,6.974,8.519,9.264l13.525,59.674c0.051,0.224,0.077,0.453,0.077,0.683
		C114.588,117.604,110.724,122.095,105.977,122.095z M13.701,112.328c0.088,2.12,1.312,3.577,2.416,3.577h89.861
		c1.093,0,2.303-1.426,2.414-3.511L94.966,53.156c-0.409-1.643-1.3-4.504-2.498-4.504h-65.78c-1.145,0-2.42,1.569-2.42,3.821
		c0,0.181-0.017,0.362-0.048,0.541L13.701,112.328z"/>
	<path d="M33.071,33.438C33.072,18.874,44.919,7.027,59.482,7.027c14.562,0,26.409,11.847,26.409,26.411
		c0.266,4.741,7.027,4.272,7.027,0C92.918,15.001,77.918,0,59.482,0C41.045,0,26.045,15.001,26.044,33.438
		C26.044,37.944,32.927,37.886,33.071,33.438z"/>
	<path d="M82.591,61.606H35.685c-1.397,0-2.53-1.132-2.53-2.529c0-1.397,1.132-2.53,2.53-2.53h46.906c1.397,0,2.53,1.132,2.53,2.53
		C85.121,60.474,83.988,61.606,82.591,61.606z"/>
	<g>
		<path d="M57.102,105.577v-4.264c-3.009-0.135-5.929-0.944-7.635-1.931l1.347-5.254c1.885,1.031,4.536,1.975,7.454,1.975
			c2.56,0,4.311-0.987,4.311-2.783c0-1.708-1.437-2.786-4.759-3.909c-4.807-1.616-8.085-3.861-8.085-8.216
			c0-3.953,2.784-7.05,7.589-7.993v-4.267h4.401v3.953c3.009,0.135,5.031,0.761,6.512,1.481l-1.302,5.075
			c-1.168-0.493-3.234-1.528-6.467-1.528c-2.92,0-3.863,1.258-3.863,2.516c0,1.481,1.572,2.424,5.39,3.861
			c5.344,1.887,7.5,4.355,7.5,8.399c0,3.997-2.83,7.408-7.993,8.308v4.578H57.102z"/>
	</g>
</g>
<g>
</g>
<g>
</g>
<g>
</g>
<g>
</g>
<g>
</g>
<g>
</g>
<g>
</g>
<g>
</g>
<g>
</g>
<g>
</g>
<g>
</g>
<g>
</g>
<g>
</g>
<g>
</g>
<g>
</g>
</svg>
